<?xml version="1.0" standalone="no"?>
<!DOCTYPE svg PUBLIC "-//W3C//DTD SVG 20010904//EN"
 "http://www.w3.org/TR/2001/REC-SVG-20010904/DTD/svg10.dtd">
<svg version="1.0" xmlns="http://www.w3.org/2000/svg"
 width="512.000000pt" height="512.000000pt" viewBox="0 0 512.000000 512.000000"
 preserveAspectRatio="xMidYMid meet">
<metadata>
Created by potrace 1.14, written by Peter Selinger 2001-2017
</metadata>
<g transform="translate(0.000000,512.000000) scale(0.100000,-0.100000)"
fill="#000000" stroke="none">
<path d="M3880 5103 c-69 -13 -176 -71 -233 -126 -76 -73 -147 -187 -201 -324
-40 -100 -125 -338 -131 -365 -2 -9 -8 -25 -13 -35 -5 -10 -21 -52 -35 -93
-14 -41 -44 -127 -67 -190 -22 -63 -53 -149 -67 -190 -14 -41 -29 -78 -32 -83
-5 -5 -35 126 -56 243 -1 3 -5 23 -9 45 -4 22 -10 51 -13 65 -11 61 -55 279
-63 315 -5 22 -24 112 -41 200 -17 88 -33 169 -35 180 -2 11 -6 31 -9 45 -12
61 -51 153 -84 197 -67 87 -139 119 -252 110 -158 -13 -222 -80 -302 -317 -29
-85 -197 -575 -311 -905 -42 -121 -100 -287 -128 -370 -86 -252 -113 -296
-205 -337 -55 -24 -134 -21 -313 12 -168 31 -274 34 -328 8 -78 -37 -162 -155
-225 -316 l-17 -42 412 0 c247 1 431 5 458 11 25 6 53 12 63 14 11 3 53 21 94
42 89 43 196 143 231 214 12 26 103 286 202 579 161 476 190 559 190 537 0 -7
34 -176 60 -297 11 -52 23 -106 25 -120 3 -14 7 -34 9 -45 35 -166 86 -406 90
-425 3 -14 12 -59 21 -100 9 -41 19 -84 21 -95 2 -11 9 -45 15 -75 21 -108 40
-158 74 -197 93 -109 294 -125 399 -32 48 43 78 96 124 229 17 47 51 144 77
215 26 72 71 198 100 280 29 83 72 202 95 265 23 63 63 176 90 250 89 252 131
364 136 369 3 3 8 1 12 -5 12 -19 95 -62 148 -77 72 -21 194 -19 262 4 244 84
353 316 245 524 -47 91 -171 180 -283 205 -45 10 -154 11 -200 3z"/>
<path d="M3638 3099 c-194 -21 -352 -129 -435 -296 -37 -74 -38 -80 -38 -182
0 -89 4 -116 24 -166 65 -161 222 -275 413 -301 24 -4 44 -7 45 -8 1 0 -76
-129 -171 -286 -94 -157 -315 -523 -490 -815 -176 -291 -321 -532 -323 -534
-9 -12 -11 21 -17 224 -4 121 -8 267 -11 325 -2 58 -7 188 -10 290 -3 102 -8
248 -10 325 -13 358 -15 421 -20 590 -10 316 -14 342 -59 419 -33 56 -80 96
-152 132 -53 26 -69 29 -154 29 -84 -1 -126 -4 -220 -20 -37 -6 -99 -14 -150
-20 -25 -3 -92 -12 -150 -20 -58 -8 -125 -17 -149 -20 -23 -3 -55 -7 -70 -9
-37 -7 -100 -15 -230 -31 -19 -2 -37 -8 -41 -12 -5 -4 -52 -111 -105 -238 -53
-126 -103 -243 -111 -259 l-14 -29 63 7 c86 10 121 14 202 26 39 6 84 12 100
14 17 2 68 10 115 16 47 7 96 14 110 15 122 14 145 17 150 20 3 2 40 6 81 10
l76 7 2 -74 c3 -72 3 -91 16 -303 7 -130 12 -218 20 -375 3 -63 8 -149 10
-190 3 -41 7 -120 10 -175 3 -55 8 -147 11 -205 3 -58 7 -136 9 -175 10 -196
16 -307 20 -375 8 -134 18 -314 19 -360 2 -36 6 -45 19 -44 41 4 134 14 152
18 11 2 45 7 76 10 31 4 65 8 75 10 11 2 62 9 114 15 118 15 186 34 264 73
152 76 244 177 407 447 101 167 132 217 319 521 181 295 287 468 311 508 49
82 296 484 321 522 46 71 105 199 124 270 37 145 24 327 -32 430 -66 122 -222
226 -364 245 -30 4 -62 8 -70 9 -8 1 -45 -1 -82 -5z"/>
</g>
</svg>
